<?xml version="1.0" encoding="UTF-8" standalone="no"?>
<svg
   xmlns:dc="http://purl.org/dc/elements/1.1/"
   xmlns:cc="http://creativecommons.org/ns#"
   xmlns:rdf="http://www.w3.org/1999/02/22-rdf-syntax-ns#"
   xmlns:svg="http://www.w3.org/2000/svg"
   xmlns="http://www.w3.org/2000/svg"
   xmlns:sodipodi="http://sodipodi.sourceforge.net/DTD/sodipodi-0.dtd"
   xmlns:inkscape="http://www.inkscape.org/namespaces/inkscape"
   version="1"
   width="24"
   height="24"
   viewBox="0 0 24 24"
   id="svg4"
   sodipodi:docname="Electrical Threshold-595b40b75ba036ed117d7496.svg"
   inkscape:version="1.0.2 (e86c870879, 2021-01-15)">
  <metadata
     id="metadata10">
    <rdf:RDF>
      <cc:Work
         rdf:about="">
        <dc:format>image/svg+xml</dc:format>
        <dc:type
           rdf:resource="http://purl.org/dc/dcmitype/StillImage" />
        <dc:title></dc:title>
      </cc:Work>
    </rdf:RDF>
  </metadata>
  <defs
     id="defs8" />
  <sodipodi:namedview
     pagecolor="#ffffff"
     bordercolor="#666666"
     borderopacity="1"
     objecttolerance="10"
     gridtolerance="10"
     guidetolerance="10"
     inkscape:pageopacity="0"
     inkscape:pageshadow="2"
     inkscape:window-width="1314"
     inkscape:window-height="679"
     id="namedview6"
     showgrid="false"
     inkscape:zoom="19.030547"
     inkscape:cx="26.904626"
     inkscape:cy="12.422004"
     inkscape:window-x="26"
     inkscape:window-y="23"
     inkscape:window-maximized="0"
     inkscape:current-layer="svg4"
     inkscape:document-rotation="0"
     fit-margin-top="0"
     fit-margin-left="0"
     fit-margin-right="0"
     fit-margin-bottom="0" />
  <g
     id="g1118"
     transform="matrix(0.71620364,0,0,0.63999532,3.4209895,4.3202169)">
    <path
       style="line-height:normal;-inkscape-font-specification:'Bitstream Vera Sans';text-indent:0;text-align:start;text-transform:none;opacity:1;stroke:#000000;stroke-width:1;stroke-miterlimit:4;stroke-dasharray:none;stroke-opacity:1"
       d="M 0,0 V 2 H 3 V 0 Z m 4.9999999,0 v 2 h 3 V 0 Z M 10,0 v 2 h 3 V 0 Z m 5,0 v 2 h 3 V 0 Z m 5,0 v 2 h 4 V 0 Z M 3.4999999,4 C 2.7808824,4 2.1580607,4.3253374 1.71875,4.71875 1.2794393,5.1121626 0.991194,5.5927155 0.75,6.03125 0.26761202,6.9083191 0.03125,7.75 0.03125,7.75 l 1.9375,0.5 c 0,0 0.188638,-0.6583191 0.5312501,-1.28125 0.171306,-0.3114655 0.3736855,-0.5809126 0.5625,-0.75 C 3.2513143,6.0496626 3.3691176,6 3.4999999,6 3.5111561,6 3.531024,5.977634 3.7187501,6.21875 3.9064757,6.4598658 4.1584015,6.9287909 4.3750001,7.53125 4.7049377,8.4489573 4.9897006,9.6948123 5.2812499,11 H 0 v 2 h 5.7499999 c 0.3396123,1.489906 0.7034813,2.970207 1.1875001,4.1875 0.2849078,0.716535 0.6049452,1.352993 1.0624999,1.875 C 8.4575546,19.584507 9.1354166,20 9.9062501,20 10.739583,20 11.437107,19.467466 11.8125,18.9375 12.187893,18.407534 12.389532,17.886762 12.59375,17.40625 12.797968,16.925738 12.992873,16.526769 13.1875,16.3125 13.382127,16.098231 13.51266,16 13.90625,16 c 1.620513,0 2.850398,-0.921408 3.53125,-2.0625 0.680852,-1.141092 0.975845,-2.471554 1.21875,-3.75 C 18.899155,8.9090542 19.096698,7.6865357 19.375,6.90625 19.514151,6.5161072 19.667591,6.2401391 19.78125,6.125 19.894909,6.0098609 19.913848,6 20.09375,6 c 0.715217,0 1.127325,0.4146998 1.46875,1 0.341425,0.5853002 0.46875,1.1875 0.46875,1.1875 l 1.9375,-0.375 c 0,0 -0.153925,-0.8978002 -0.6875,-1.8125 -0.533575,-0.9146998 -1.602717,-2 -3.1875,-2 -0.670098,0 -1.323815,0.2870141 -1.75,0.71875 C 17.917565,5.1504859 17.695224,5.6713928 17.5,6.21875 17.109552,7.3134643 16.919595,8.5909458 16.6875,9.8125 16.60867,10.227385 16.503297,10.612145 16.40625,11 h -7.3125 l 0.4062499,2 H 15.6875 c -0.423,0.688929 -0.83078,1 -1.78125,1 -0.90641,0 -1.700877,0.401769 -2.1875,0.9375 -0.486623,0.535731 -0.747968,1.136762 -0.96875,1.65625 -0.220782,0.519488 -0.406643,0.998716 -0.5625,1.21875 C 10.031643,18.032534 10.072917,18 9.9062501,18 9.8020834,18 9.713539,17.9936 9.4999999,17.75 9.2864609,17.506382 9.0182172,17.033465 8.7812501,16.4375 8.3073156,15.245569 7.9177685,13.526818 7.5312499,11.78125 7.1447314,10.035682 6.7605533,8.2638318 6.2500001,6.84375 5.9947234,6.1337091 5.720868,5.5245092 5.3125001,5 4.9041322,4.4754908 4.2638441,4 3.4999999,4 Z M 20,11 c -0.2,1.1 -0.5,2 -0.5,2 H 24 V 11 Z M 0,22 v 2 h 3 v -2 z m 4.9999999,0 v 2 h 3 V 22 Z M 10,22 v 2 h 3 v -2 z m 5,0 v 2 h 3 v -2 z m 5,0 v 2 h 4 v -2 z"
       id="path2" />
  </g>
</svg>
