<?xml version="1.0" encoding="UTF-8" standalone="no"?>
<svg
   xmlns:dc="http://purl.org/dc/elements/1.1/"
   xmlns:cc="http://creativecommons.org/ns#"
   xmlns:rdf="http://www.w3.org/1999/02/22-rdf-syntax-ns#"
   xmlns:svg="http://www.w3.org/2000/svg"
   xmlns="http://www.w3.org/2000/svg"
   xmlns:sodipodi="http://sodipodi.sourceforge.net/DTD/sodipodi-0.dtd"
   xmlns:inkscape="http://www.inkscape.org/namespaces/inkscape"
   viewBox="0 0 1920 1920"
   version="1.1"
   id="svg20"
   sodipodi:docname="postcard_icon_126279.svg"
   inkscape:version="1.0.2 (e86c870879, 2021-01-15)">
  <metadata
     id="metadata26">
    <rdf:RDF>
      <cc:Work
         rdf:about="">
        <dc:format>image/svg+xml</dc:format>
        <dc:type
           rdf:resource="http://purl.org/dc/dcmitype/StillImage" />
      </cc:Work>
    </rdf:RDF>
  </metadata>
  <defs
     id="defs24" />
  <sodipodi:namedview
     pagecolor="#ffffff"
     bordercolor="#666666"
     borderopacity="1"
     objecttolerance="10"
     gridtolerance="10"
     guidetolerance="10"
     inkscape:pageopacity="0"
     inkscape:pageshadow="2"
     inkscape:window-width="1366"
     inkscape:window-height="704"
     id="namedview22"
     showgrid="false"
     inkscape:zoom="0.24605619"
     inkscape:cx="951.98781"
     inkscape:cy="734.75877"
     inkscape:window-x="0"
     inkscape:window-y="0"
     inkscape:window-maximized="1"
     inkscape:current-layer="svg20" />
  <style
     id="style2">
        .st0{fill:#fff}.st1{fill:none;stroke:#231f20;stroke-width:50;stroke-linecap:round;stroke-linejoin:round;stroke-miterlimit:10}
    </style>
  <path
     class="st0"
     d="M1703.1 475.5v969.1H216.9V475.5h1486.2zm-129.4 366v-234h-189v234h189z"
     id="Layer_10" />
  <path
     class="st0"
     d="M1384.7 607.5h189v234h-189z"
     id="Layer_11" />
  <path
     class="st1"
     d="M 216.9,475.5 H 1703 v 969.1 H 216.9 Z"
     id="path6" />
  <path
     class="st1"
     d="m 1384.7,607.5 h 189 v 234 h -189 z"
     id="path8" />
  <path
     class="st1"
     d="m 1000,607.5 v 705"
     id="path10" />
  <path
     class="st1"
     d="m 1150.6,1034.8 h 426.1"
     id="path12" />
  <path
     class="st1"
     d="m 1150.6,1148.2 h 426.1"
     id="path14" />
  <path
     class="st1"
     d="m 1150.6,1261.5 h 426.1"
     id="path16" />
  <path
     d="M 806.59173,746.15997 V 1181.2513 H 392.72289 V 746.15997 h 413.86884 m 0,-62.15589 H 392.72289 c -32.51826,0 -59.12412,27.97016 -59.12412,62.15589 v 435.09133 c 0,34.1858 26.60586,62.1559 59.12412,62.1559 h 413.86884 c 32.51828,0 59.12414,-27.9701 59.12414,-62.1559 V 746.15997 c 0,-34.18573 -26.60586,-62.15589 -59.12414,-62.15589 z m -143.6716,275.35069 -88.6862,120.27153 -63.26279,-80.49183 -88.68618,119.96093 h 354.74473 z"
     id="path4"
     style="stroke-width:30.3105" />
</svg>
