<?xml version="1.0" encoding="UTF-8" standalone="no"?>
<svg
   xmlns:dc="http://purl.org/dc/elements/1.1/"
   xmlns:cc="http://creativecommons.org/ns#"
   xmlns:rdf="http://www.w3.org/1999/02/22-rdf-syntax-ns#"
   xmlns:svg="http://www.w3.org/2000/svg"
   xmlns="http://www.w3.org/2000/svg"
   xmlns:sodipodi="http://sodipodi.sourceforge.net/DTD/sodipodi-0.dtd"
   xmlns:inkscape="http://www.inkscape.org/namespaces/inkscape"
   width="210mm"
   height="297mm"
   viewBox="0 0 210 297"
   version="1.1"
   id="svg8"
   inkscape:version="1.0.2 (e86c870879, 2021-01-15)"
   sodipodi:docname="drawing.svg">
  <defs
     id="defs2" />
  <sodipodi:namedview
     id="base"
     pagecolor="#ffffff"
     bordercolor="#666666"
     borderopacity="1.0"
     inkscape:pageopacity="0.0"
     inkscape:pageshadow="2"
     inkscape:zoom="0.56896571"
     inkscape:cx="604.12545"
     inkscape:cy="526.07078"
     inkscape:document-units="mm"
     inkscape:current-layer="layer1"
     inkscape:document-rotation="0"
     showgrid="false"
     inkscape:window-width="1366"
     inkscape:window-height="704"
     inkscape:window-x="0"
     inkscape:window-y="0"
     inkscape:window-maximized="1" />
  <metadata
     id="metadata5">
    <rdf:RDF>
      <cc:Work
         rdf:about="">
        <dc:format>image/svg+xml</dc:format>
        <dc:type
           rdf:resource="http://purl.org/dc/dcmitype/StillImage" />
        <dc:title></dc:title>
      </cc:Work>
    </rdf:RDF>
  </metadata>
  <g
     inkscape:label="Layer 1"
     inkscape:groupmode="layer"
     id="layer1">
    <g
       id="g955"
       transform="translate(-0.63744809,-0.80370752)">
      <path
         style="fill:#d0d0d0;fill-opacity:1;stroke-width:0.264583"
         d="m 22.946527,97.423776 c 0,-0.411575 0.176389,-0.529167 0.79375,-0.529167 0.617361,0 0.79375,0.117592 0.79375,0.529167 0,0.411574 -0.176389,0.529166 -0.79375,0.529166 -0.617361,0 -0.79375,-0.117592 -0.79375,-0.529166 z m 2.645833,0 c 0,-0.440973 0.176389,-0.529167 1.058334,-0.529167 0.881944,0 1.058333,0.08819 1.058333,0.529167 0,0.440972 -0.176389,0.529166 -1.058333,0.529166 -0.881945,0 -1.058334,-0.08819 -1.058334,-0.529166 z m 3.175,0 c 0,-0.440973 0.176389,-0.529167 1.058334,-0.529167 0.881944,0 1.058333,0.08819 1.058333,0.529167 0,0.440972 -0.176389,0.529166 -1.058333,0.529166 -0.881945,0 -1.058334,-0.08819 -1.058334,-0.529166 z m 3.175001,0 c 0,-0.440973 0.176389,-0.529167 1.058333,-0.529167 0.881944,0 1.058333,0.08819 1.058333,0.529167 0,0.440972 -0.176389,0.529166 -1.058333,0.529166 -0.881944,0 -1.058333,-0.08819 -1.058333,-0.529166 z m 3.175,0 c 0,-0.440973 0.176389,-0.529167 1.058333,-0.529167 0.881944,0 1.058333,0.08819 1.058333,0.529167 0,0.440972 -0.176389,0.529166 -1.058333,0.529166 -0.881944,0 -1.058333,-0.08819 -1.058333,-0.529166 z m 3.175,0 c 0,-0.440973 0.176389,-0.529167 1.058333,-0.529167 0.881944,0 1.058333,0.08819 1.058333,0.529167 0,0.440972 -0.176389,0.529166 -1.058333,0.529166 -0.881944,0 -1.058333,-0.08819 -1.058333,-0.529166 z m 3.175,0 c 0,-0.440973 0.176389,-0.529167 1.058333,-0.529167 0.881945,0 1.058334,0.08819 1.058334,0.529167 0,0.440972 -0.176389,0.529166 -1.058334,0.529166 -0.881944,0 -1.058333,-0.08819 -1.058333,-0.529166 z m 3.175,0 c 0,-0.440973 0.176389,-0.529167 1.058333,-0.529167 0.881945,0 1.058334,0.08819 1.058334,0.529167 0,0.440972 -0.176389,0.529166 -1.058334,0.529166 -0.881944,0 -1.058333,-0.08819 -1.058333,-0.529166 z m 3.175,0 c 0,-0.411575 0.176389,-0.529167 0.79375,-0.529167 0.617361,0 0.79375,0.117592 0.79375,0.529167 0,0.411574 -0.176389,0.529166 -0.79375,0.529166 -0.617361,0 -0.79375,-0.117592 -0.79375,-0.529166 z M 31.468523,94.89275 C 30.615992,94.295614 29.860388,92.660402 29.165259,89.908228 L 28.557482,87.5019 25.752004,87.4268 c -2.587534,-0.06926 -2.805477,-0.11551 -2.805477,-0.595312 0,-0.482551 0.191564,-0.520216 2.645833,-0.520216 3.076085,0 2.943501,0.190182 2.117883,-3.037956 -0.791131,-3.09329 -1.159372,-3.338796 -2.136143,-1.424167 -0.50207,0.984138 -0.599053,1.045762 -1.385282,0.880216 -1.27269,-0.267974 -1.364225,-0.497057 -0.725675,-1.816124 1.264735,-2.612596 3.325701,-3.308626 4.88895,-1.6511 0.975413,1.034239 1.441038,2.465758 2.531096,7.781602 0.802064,3.911398 1.642539,6.307949 2.110731,6.018591 0.148681,-0.09189 0.581517,-0.824871 0.961859,-1.628848 0.735277,-1.554248 1.853255,-2.47291 3.013665,-2.47638 0.745216,-0.0022 2.38125,-0.908465 2.38125,-1.319028 0,-0.169231 -1.418159,-0.268472 -3.836458,-0.268472 -3.66007,0 -3.836459,-0.02433 -3.836459,-0.529167 0,-0.507019 0.176389,-0.529167 4.214324,-0.529167 h 4.214323 L 40.61848,84.92221 c 0.281631,-0.763985 0.784671,-2.2225 1.117868,-3.241146 0.786488,-2.404439 2.115937,-3.836459 3.561667,-3.836459 1.281255,0 2.285611,0.615626 3.130737,1.919004 0.631284,0.973585 1.152988,2.490228 0.932462,2.710754 -0.0517,0.0517 -0.555807,0.132485 -1.120236,0.179519 -0.948684,0.07905 -1.04845,0.02105 -1.320237,-0.767604 -0.161703,-0.469215 -0.557694,-1.116549 -0.879979,-1.43852 -0.561182,-0.560634 -0.607702,-0.565739 -1.099506,-0.120662 -0.282443,0.255606 -1.009125,1.914972 -1.614851,3.687479 -0.605725,1.772506 -1.393524,3.72472 -1.750664,4.338253 -0.743876,1.277908 -2.026526,2.345648 -3.084943,2.568053 -0.400182,0.08409 -1.011603,0.211263 -1.358714,0.282607 -0.438133,0.09005 -0.809906,0.51479 -1.215846,1.389062 -0.872979,1.880135 -1.766301,2.714556 -2.906174,2.714556 -0.522478,0 -1.216172,-0.186462 -1.541541,-0.414359 z m 11.774258,-8.052308 c 0.128157,-0.490072 0.360896,-0.529167 3.15023,-0.529167 2.835461,0 3.01185,0.03099 3.01185,0.529167 0,0.499537 -0.176389,0.529167 -3.15023,0.529167 -3.019968,0 -3.144508,-0.02188 -3.01185,-0.529167 z M 22.946527,76.257108 c 0,-0.411574 0.176389,-0.529166 0.79375,-0.529166 0.617361,0 0.79375,0.117592 0.79375,0.529166 0,0.411575 -0.176389,0.529167 -0.79375,0.529167 -0.617361,0 -0.79375,-0.117592 -0.79375,-0.529167 z m 2.645833,0 c 0,-0.440972 0.176389,-0.529166 1.058334,-0.529166 0.881944,0 1.058333,0.08819 1.058333,0.529166 0,0.440973 -0.176389,0.529167 -1.058333,0.529167 -0.881945,0 -1.058334,-0.08819 -1.058334,-0.529167 z m 3.175,0 c 0,-0.440972 0.176389,-0.529166 1.058334,-0.529166 0.881944,0 1.058333,0.08819 1.058333,0.529166 0,0.440973 -0.176389,0.529167 -1.058333,0.529167 -0.881945,0 -1.058334,-0.08819 -1.058334,-0.529167 z m 3.175001,0 c 0,-0.440972 0.176389,-0.529166 1.058333,-0.529166 0.881944,0 1.058333,0.08819 1.058333,0.529166 0,0.440973 -0.176389,0.529167 -1.058333,0.529167 -0.881944,0 -1.058333,-0.08819 -1.058333,-0.529167 z m 3.175,0 c 0,-0.440972 0.176389,-0.529166 1.058333,-0.529166 0.881944,0 1.058333,0.08819 1.058333,0.529166 0,0.440973 -0.176389,0.529167 -1.058333,0.529167 -0.881944,0 -1.058333,-0.08819 -1.058333,-0.529167 z m 3.175,0 c 0,-0.440972 0.176389,-0.529166 1.058333,-0.529166 0.881944,0 1.058333,0.08819 1.058333,0.529166 0,0.440973 -0.176389,0.529167 -1.058333,0.529167 -0.881944,0 -1.058333,-0.08819 -1.058333,-0.529167 z m 3.175,0 c 0,-0.440972 0.176389,-0.529166 1.058333,-0.529166 0.881945,0 1.058334,0.08819 1.058334,0.529166 0,0.440973 -0.176389,0.529167 -1.058334,0.529167 -0.881944,0 -1.058333,-0.08819 -1.058333,-0.529167 z m 3.175,0 c 0,-0.440972 0.176389,-0.529166 1.058333,-0.529166 0.881945,0 1.058334,0.08819 1.058334,0.529166 0,0.440973 -0.176389,0.529167 -1.058334,0.529167 -0.881944,0 -1.058333,-0.08819 -1.058333,-0.529167 z m 3.175,0 c 0,-0.411574 0.176389,-0.529166 0.79375,-0.529166 0.617361,0 0.79375,0.117592 0.79375,0.529166 0,0.411575 -0.176389,0.529167 -0.79375,0.529167 -0.617361,0 -0.79375,-0.117592 -0.79375,-0.529167 z"
         id="path971" />
      <path
         style="fill:#b9b9b9;fill-opacity:1;stroke-width:0.264583"
         d="m 22.946527,97.423776 c 0,-0.411575 0.176389,-0.529167 0.79375,-0.529167 0.617361,0 0.79375,0.117592 0.79375,0.529167 0,0.411574 -0.176389,0.529166 -0.79375,0.529166 -0.617361,0 -0.79375,-0.117592 -0.79375,-0.529166 z m 2.645833,0 c 0,-0.440973 0.176389,-0.529167 1.058334,-0.529167 0.881944,0 1.058333,0.08819 1.058333,0.529167 0,0.440972 -0.176389,0.529166 -1.058333,0.529166 -0.881945,0 -1.058334,-0.08819 -1.058334,-0.529166 z m 3.175,0 c 0,-0.440973 0.176389,-0.529167 1.058334,-0.529167 0.881944,0 1.058333,0.08819 1.058333,0.529167 0,0.440972 -0.176389,0.529166 -1.058333,0.529166 -0.881945,0 -1.058334,-0.08819 -1.058334,-0.529166 z m 3.175001,0 c 0,-0.440973 0.176389,-0.529167 1.058333,-0.529167 0.881944,0 1.058333,0.08819 1.058333,0.529167 0,0.440972 -0.176389,0.529166 -1.058333,0.529166 -0.881944,0 -1.058333,-0.08819 -1.058333,-0.529166 z m 3.175,0 c 0,-0.440973 0.176389,-0.529167 1.058333,-0.529167 0.881944,0 1.058333,0.08819 1.058333,0.529167 0,0.440972 -0.176389,0.529166 -1.058333,0.529166 -0.881944,0 -1.058333,-0.08819 -1.058333,-0.529166 z m 3.175,0 c 0,-0.440973 0.176389,-0.529167 1.058333,-0.529167 0.881944,0 1.058333,0.08819 1.058333,0.529167 0,0.440972 -0.176389,0.529166 -1.058333,0.529166 -0.881944,0 -1.058333,-0.08819 -1.058333,-0.529166 z m 3.175,0 c 0,-0.440973 0.176389,-0.529167 1.058333,-0.529167 0.881945,0 1.058334,0.08819 1.058334,0.529167 0,0.440972 -0.176389,0.529166 -1.058334,0.529166 -0.881944,0 -1.058333,-0.08819 -1.058333,-0.529166 z m 3.175,0 c 0,-0.440973 0.176389,-0.529167 1.058333,-0.529167 0.881945,0 1.058334,0.08819 1.058334,0.529167 0,0.440972 -0.176389,0.529166 -1.058334,0.529166 -0.881944,0 -1.058333,-0.08819 -1.058333,-0.529166 z m 3.175,0 c 0,-0.411575 0.176389,-0.529167 0.79375,-0.529167 0.617361,0 0.79375,0.117592 0.79375,0.529167 0,0.411574 -0.176389,0.529166 -0.79375,0.529166 -0.617361,0 -0.79375,-0.117592 -0.79375,-0.529166 z M 31.1708,94.576253 C 30.311018,93.716471 29.443046,91.533098 28.995546,89.104427 L 28.675893,87.369609 H 25.81121 c -2.671863,0 -2.864683,-0.03502 -2.864683,-0.520216 0,-0.479072 0.217635,-0.526154 2.751785,-0.595312 l 2.751785,-0.0751 -0.626375,-2.475898 c -0.717368,-2.835564 -1.034817,-3.392005 -1.645993,-2.885178 -0.221515,0.183696 -0.56799,0.729289 -0.769943,1.212429 -0.336618,0.805305 -0.437835,0.863559 -1.215786,0.69973 -1.280143,-0.269587 -1.345216,-0.472884 -0.613539,-1.916778 0.822297,-1.622725 1.806637,-2.439514 2.939941,-2.439514 1.975186,0 2.869951,1.65139 4.087817,7.544527 1.149713,5.563358 1.813673,7.498803 2.439747,7.111869 0.137443,-0.08494 0.56141,-0.812371 0.942148,-1.616503 0.734942,-1.55222 1.828282,-2.453111 2.98133,-2.456559 0.738694,-0.0022 2.38125,-0.907047 2.38125,-1.311763 0,-0.15622 -1.514085,-0.290714 -3.767008,-0.334618 -3.343143,-0.06515 -3.777006,-0.12551 -3.855859,-0.536432 -0.08163,-0.425383 0.255296,-0.463021 4.144873,-0.463021 h 4.233724 L 40.61848,84.92221 c 0.281631,-0.763985 0.784671,-2.2225 1.117868,-3.241146 0.819509,-2.505391 2.104428,-3.836459 3.703449,-3.836459 0.970098,0 1.278654,0.15438 2.250029,1.125756 0.978255,0.978254 2.04469,3.165446 1.69128,3.468709 -0.0597,0.05123 -0.531163,0.158163 -1.047705,0.237639 -0.908742,0.139822 -0.958036,0.103377 -1.521536,-1.124937 -1.181075,-2.574502 -1.969743,-1.986106 -3.571354,2.664456 -1.696464,4.925982 -2.981179,6.497671 -5.596665,6.846826 -0.989931,0.132151 -1.124937,0.253179 -1.777952,1.593875 -1.308151,2.68575 -3.168264,3.446151 -4.695094,1.919321 z m 12.148644,-7.735811 c 0.256767,-0.479774 0.553991,-0.529167 3.184309,-0.529167 2.724719,0 2.901108,0.03217 2.901108,0.529167 0,0.499855 -0.176389,0.529167 -3.184309,0.529167 -3.102321,0 -3.177017,-0.01362 -2.901108,-0.529167 z M 22.946527,76.257108 c 0,-0.411574 0.176389,-0.529166 0.79375,-0.529166 0.617361,0 0.79375,0.117592 0.79375,0.529166 0,0.411575 -0.176389,0.529167 -0.79375,0.529167 -0.617361,0 -0.79375,-0.117592 -0.79375,-0.529167 z m 2.645833,0 c 0,-0.440972 0.176389,-0.529166 1.058334,-0.529166 0.881944,0 1.058333,0.08819 1.058333,0.529166 0,0.440973 -0.176389,0.529167 -1.058333,0.529167 -0.881945,0 -1.058334,-0.08819 -1.058334,-0.529167 z m 3.175,0 c 0,-0.440972 0.176389,-0.529166 1.058334,-0.529166 0.881944,0 1.058333,0.08819 1.058333,0.529166 0,0.440973 -0.176389,0.529167 -1.058333,0.529167 -0.881945,0 -1.058334,-0.08819 -1.058334,-0.529167 z m 3.175001,0 c 0,-0.440972 0.176389,-0.529166 1.058333,-0.529166 0.881944,0 1.058333,0.08819 1.058333,0.529166 0,0.440973 -0.176389,0.529167 -1.058333,0.529167 -0.881944,0 -1.058333,-0.08819 -1.058333,-0.529167 z m 3.175,0 c 0,-0.440972 0.176389,-0.529166 1.058333,-0.529166 0.881944,0 1.058333,0.08819 1.058333,0.529166 0,0.440973 -0.176389,0.529167 -1.058333,0.529167 -0.881944,0 -1.058333,-0.08819 -1.058333,-0.529167 z m 3.175,0 c 0,-0.440972 0.176389,-0.529166 1.058333,-0.529166 0.881944,0 1.058333,0.08819 1.058333,0.529166 0,0.440973 -0.176389,0.529167 -1.058333,0.529167 -0.881944,0 -1.058333,-0.08819 -1.058333,-0.529167 z m 3.175,0 c 0,-0.440972 0.176389,-0.529166 1.058333,-0.529166 0.881945,0 1.058334,0.08819 1.058334,0.529166 0,0.440973 -0.176389,0.529167 -1.058334,0.529167 -0.881944,0 -1.058333,-0.08819 -1.058333,-0.529167 z m 3.175,0 c 0,-0.440972 0.176389,-0.529166 1.058333,-0.529166 0.881945,0 1.058334,0.08819 1.058334,0.529166 0,0.440973 -0.176389,0.529167 -1.058334,0.529167 -0.881944,0 -1.058333,-0.08819 -1.058333,-0.529167 z m 3.175,0 c 0,-0.411574 0.176389,-0.529166 0.79375,-0.529166 0.617361,0 0.79375,0.117592 0.79375,0.529166 0,0.411575 -0.176389,0.529167 -0.79375,0.529167 -0.617361,0 -0.79375,-0.117592 -0.79375,-0.529167 z"
         id="path969" />
      <path
         style="fill:#a3a3a3;fill-opacity:1;stroke-width:0.264583"
         d="m 22.946527,97.423776 c 0,-0.411575 0.176389,-0.529167 0.79375,-0.529167 0.617361,0 0.79375,0.117592 0.79375,0.529167 0,0.411574 -0.176389,0.529166 -0.79375,0.529166 -0.617361,0 -0.79375,-0.117592 -0.79375,-0.529166 z m 2.645833,0 c 0,-0.440973 0.176389,-0.529167 1.058334,-0.529167 0.881944,0 1.058333,0.08819 1.058333,0.529167 0,0.440972 -0.176389,0.529166 -1.058333,0.529166 -0.881945,0 -1.058334,-0.08819 -1.058334,-0.529166 z m 3.175,0 c 0,-0.440973 0.176389,-0.529167 1.058334,-0.529167 0.881944,0 1.058333,0.08819 1.058333,0.529167 0,0.440972 -0.176389,0.529166 -1.058333,0.529166 -0.881945,0 -1.058334,-0.08819 -1.058334,-0.529166 z m 3.175001,0 c 0,-0.440973 0.176389,-0.529167 1.058333,-0.529167 0.881944,0 1.058333,0.08819 1.058333,0.529167 0,0.440972 -0.176389,0.529166 -1.058333,0.529166 -0.881944,0 -1.058333,-0.08819 -1.058333,-0.529166 z m 3.175,0 c 0,-0.440973 0.176389,-0.529167 1.058333,-0.529167 0.881944,0 1.058333,0.08819 1.058333,0.529167 0,0.440972 -0.176389,0.529166 -1.058333,0.529166 -0.881944,0 -1.058333,-0.08819 -1.058333,-0.529166 z m 3.175,0 c 0,-0.440973 0.176389,-0.529167 1.058333,-0.529167 0.881944,0 1.058333,0.08819 1.058333,0.529167 0,0.440972 -0.176389,0.529166 -1.058333,0.529166 -0.881944,0 -1.058333,-0.08819 -1.058333,-0.529166 z m 3.175,0 c 0,-0.440973 0.176389,-0.529167 1.058333,-0.529167 0.881945,0 1.058334,0.08819 1.058334,0.529167 0,0.440972 -0.176389,0.529166 -1.058334,0.529166 -0.881944,0 -1.058333,-0.08819 -1.058333,-0.529166 z m 3.175,0 c 0,-0.440973 0.176389,-0.529167 1.058333,-0.529167 0.881945,0 1.058334,0.08819 1.058334,0.529167 0,0.440972 -0.176389,0.529166 -1.058334,0.529166 -0.881944,0 -1.058333,-0.08819 -1.058333,-0.529166 z m 3.175,0 c 0,-0.411575 0.176389,-0.529167 0.79375,-0.529167 0.617361,0 0.79375,0.117592 0.79375,0.529167 0,0.411574 -0.176389,0.529166 -0.79375,0.529166 -0.617361,0 -0.79375,-0.117592 -0.79375,-0.529166 z M 31.303794,94.643694 c -0.926408,-0.858566 -1.577633,-2.37986 -2.179436,-5.091273 l -0.48448,-2.182812 h -2.846676 c -2.653959,0 -2.846675,-0.03522 -2.846675,-0.520216 0,-0.478946 0.217583,-0.526173 2.742721,-0.595312 l 2.742721,-0.0751 -0.585609,-2.437699 c -0.667051,-2.776709 -1.045647,-3.439996 -1.668631,-2.923377 -0.221515,0.183696 -0.564504,0.720945 -0.762196,1.193888 -0.197692,0.472943 -0.459139,0.859896 -0.580991,0.859896 -0.347782,0 -1.888015,-0.567905 -1.888015,-0.696137 0,-0.06336 0.29371,-0.694813 0.652689,-1.403224 0.802614,-1.583883 1.79412,-2.398556 2.919186,-2.398556 1.929135,0 2.908018,1.733601 3.974358,7.038584 1.22412,6.089937 1.869318,8.040478 2.525478,7.634948 0.142385,-0.088 0.613635,-0.86276 1.047223,-1.721693 0.842095,-1.668181 1.528961,-2.183649 3.267528,-2.452163 0.975562,-0.150671 2.017705,-0.808176 2.017705,-1.273002 0,-0.118971 -1.695154,-0.249346 -3.767008,-0.289721 -3.321777,-0.06473 -3.777359,-0.127352 -3.85458,-0.529791 -0.07956,-0.414609 0.305456,-0.463042 4.206561,-0.529166 l 4.294132,-0.07279 0.843269,-2.513542 c 1.610262,-4.799728 2.55454,-5.970904 4.627626,-5.73959 0.974305,0.108712 1.362201,0.326109 2.134978,1.196552 0.794885,0.895345 1.803475,3.110053 1.521381,3.340722 -0.04647,0.038 -0.518428,0.135947 -1.048805,0.217668 -0.939657,0.144784 -0.975775,0.118596 -1.412099,-1.023903 -0.466812,-1.222329 -1.145253,-1.799802 -1.813307,-1.543446 -0.441349,0.169362 -1.154533,1.748714 -2.013684,4.459321 -1.406844,4.43857 -2.814111,6.116658 -5.438256,6.484819 -0.973969,0.136646 -1.125311,0.274619 -1.89856,1.730848 -0.462125,0.870301 -1.100393,1.793036 -1.418374,2.050521 -0.842131,0.681916 -2.155619,0.596715 -3.010174,-0.19526 z m 12.01565,-7.803252 c 0.256767,-0.479774 0.553991,-0.529167 3.184309,-0.529167 2.724719,0 2.901108,0.03217 2.901108,0.529167 0,0.499855 -0.176389,0.529167 -3.184309,0.529167 -3.102321,0 -3.177017,-0.01362 -2.901108,-0.529167 z M 22.946527,76.257108 c 0,-0.411574 0.176389,-0.529166 0.79375,-0.529166 0.617361,0 0.79375,0.117592 0.79375,0.529166 0,0.411575 -0.176389,0.529167 -0.79375,0.529167 -0.617361,0 -0.79375,-0.117592 -0.79375,-0.529167 z m 2.645833,0 c 0,-0.440972 0.176389,-0.529166 1.058334,-0.529166 0.881944,0 1.058333,0.08819 1.058333,0.529166 0,0.440973 -0.176389,0.529167 -1.058333,0.529167 -0.881945,0 -1.058334,-0.08819 -1.058334,-0.529167 z m 3.175,0 c 0,-0.440972 0.176389,-0.529166 1.058334,-0.529166 0.881944,0 1.058333,0.08819 1.058333,0.529166 0,0.440973 -0.176389,0.529167 -1.058333,0.529167 -0.881945,0 -1.058334,-0.08819 -1.058334,-0.529167 z m 3.175001,0 c 0,-0.440972 0.176389,-0.529166 1.058333,-0.529166 0.881944,0 1.058333,0.08819 1.058333,0.529166 0,0.440973 -0.176389,0.529167 -1.058333,0.529167 -0.881944,0 -1.058333,-0.08819 -1.058333,-0.529167 z m 3.175,0 c 0,-0.440972 0.176389,-0.529166 1.058333,-0.529166 0.881944,0 1.058333,0.08819 1.058333,0.529166 0,0.440973 -0.176389,0.529167 -1.058333,0.529167 -0.881944,0 -1.058333,-0.08819 -1.058333,-0.529167 z m 3.175,0 c 0,-0.440972 0.176389,-0.529166 1.058333,-0.529166 0.881944,0 1.058333,0.08819 1.058333,0.529166 0,0.440973 -0.176389,0.529167 -1.058333,0.529167 -0.881944,0 -1.058333,-0.08819 -1.058333,-0.529167 z m 3.175,0 c 0,-0.440972 0.176389,-0.529166 1.058333,-0.529166 0.881945,0 1.058334,0.08819 1.058334,0.529166 0,0.440973 -0.176389,0.529167 -1.058334,0.529167 -0.881944,0 -1.058333,-0.08819 -1.058333,-0.529167 z m 3.175,0 c 0,-0.440972 0.176389,-0.529166 1.058333,-0.529166 0.881945,0 1.058334,0.08819 1.058334,0.529166 0,0.440973 -0.176389,0.529167 -1.058334,0.529167 -0.881944,0 -1.058333,-0.08819 -1.058333,-0.529167 z m 3.175,0 c 0,-0.411574 0.176389,-0.529166 0.79375,-0.529166 0.617361,0 0.79375,0.117592 0.79375,0.529166 0,0.411575 -0.176389,0.529167 -0.79375,0.529167 -0.617361,0 -0.79375,-0.117592 -0.79375,-0.529167 z"
         id="path967" />
      <path
         style="fill:#8c8c8c;fill-opacity:1;stroke-width:0.264583"
         d="m 22.946527,97.423776 c 0,-0.411575 0.176389,-0.529167 0.79375,-0.529167 0.617361,0 0.79375,0.117592 0.79375,0.529167 0,0.411574 -0.176389,0.529166 -0.79375,0.529166 -0.617361,0 -0.79375,-0.117592 -0.79375,-0.529166 z m 2.645833,0 c 0,-0.440973 0.176389,-0.529167 1.058334,-0.529167 0.881944,0 1.058333,0.08819 1.058333,0.529167 0,0.440972 -0.176389,0.529166 -1.058333,0.529166 -0.881945,0 -1.058334,-0.08819 -1.058334,-0.529166 z m 3.175,0 c 0,-0.440973 0.176389,-0.529167 1.058334,-0.529167 0.881944,0 1.058333,0.08819 1.058333,0.529167 0,0.440972 -0.176389,0.529166 -1.058333,0.529166 -0.881945,0 -1.058334,-0.08819 -1.058334,-0.529166 z m 3.175001,0 c 0,-0.440973 0.176389,-0.529167 1.058333,-0.529167 0.881944,0 1.058333,0.08819 1.058333,0.529167 0,0.440972 -0.176389,0.529166 -1.058333,0.529166 -0.881944,0 -1.058333,-0.08819 -1.058333,-0.529166 z m 3.175,0 c 0,-0.440973 0.176389,-0.529167 1.058333,-0.529167 0.881944,0 1.058333,0.08819 1.058333,0.529167 0,0.440972 -0.176389,0.529166 -1.058333,0.529166 -0.881944,0 -1.058333,-0.08819 -1.058333,-0.529166 z m 3.175,0 c 0,-0.440973 0.176389,-0.529167 1.058333,-0.529167 0.881944,0 1.058333,0.08819 1.058333,0.529167 0,0.440972 -0.176389,0.529166 -1.058333,0.529166 -0.881944,0 -1.058333,-0.08819 -1.058333,-0.529166 z m 3.175,0 c 0,-0.440973 0.176389,-0.529167 1.058333,-0.529167 0.881945,0 1.058334,0.08819 1.058334,0.529167 0,0.440972 -0.176389,0.529166 -1.058334,0.529166 -0.881944,0 -1.058333,-0.08819 -1.058333,-0.529166 z m 3.175,0 c 0,-0.440973 0.176389,-0.529167 1.058333,-0.529167 0.881945,0 1.058334,0.08819 1.058334,0.529167 0,0.440972 -0.176389,0.529166 -1.058334,0.529166 -0.881944,0 -1.058333,-0.08819 -1.058333,-0.529166 z m 3.175,0 c 0,-0.411575 0.176389,-0.529167 0.79375,-0.529167 0.617361,0 0.79375,0.117592 0.79375,0.529167 0,0.411574 -0.176389,0.529166 -0.79375,0.529166 -0.617361,0 -0.79375,-0.117592 -0.79375,-0.529166 z M 31.631863,94.901791 c -0.923532,-0.501515 -1.897846,-2.59702 -2.487211,-5.34937 l -0.467409,-2.182812 h -2.865358 c -2.688969,0 -2.865358,-0.03257 -2.865358,-0.529167 0,-0.49563 0.176389,-0.529167 2.783166,-0.529167 h 2.783166 l -0.164958,-0.727604 c -0.795871,-3.510476 -1.330519,-5.093229 -1.720473,-5.093229 -0.279229,0 -1.242237,1.254374 -1.439034,1.874425 -0.126141,0.397438 -0.315494,0.471229 -0.8708,0.339353 -1.391199,-0.330387 -1.422423,-0.419321 -0.674305,-1.920599 1.109172,-2.225817 2.962316,-3.013543 4.410175,-1.874656 0.943423,0.742096 1.647874,2.797088 2.686733,7.837611 0.845769,4.103655 1.54241,6.186255 2.128205,6.362245 0.145521,0.04372 0.651079,-0.667997 1.123463,-1.58159 0.931222,-1.800991 1.89264,-2.570122 3.212666,-2.570122 0.533356,0 1.113428,-0.271556 1.678968,-0.785995 l 0.86407,-0.785994 -3.874297,-0.0078 c -3.284062,-0.0066 -3.898763,-0.07151 -4.034896,-0.42627 -0.08833,-0.230183 -0.160599,-0.465359 -0.160599,-0.522612 0,-0.05725 1.932568,-0.136813 4.294595,-0.176799 l 4.294595,-0.0727 0.946764,-2.778125 c 1.149501,-3.373023 1.610528,-4.277567 2.563448,-5.029525 1.003612,-0.791961 2.722267,-0.609839 3.776509,0.400188 0.798233,0.764757 1.969606,3.165321 1.732078,3.54965 -0.07732,0.125109 -0.551662,0.275461 -1.05409,0.334117 -0.865016,0.100986 -0.936592,0.0462 -1.348405,-1.03212 -0.403122,-1.055559 -1.019337,-1.661894 -1.688972,-1.661894 -0.389744,0 -1.1496,1.605781 -2.003216,4.233334 -1.509837,4.647492 -2.906085,6.395571 -5.450531,6.823974 -1.092777,0.183989 -1.222085,0.298243 -2.00821,1.774434 -1.309224,2.458466 -2.412084,3.02564 -4.100479,2.108774 z m 11.737494,-7.995203 c 0.07717,-0.40277 0.475631,-0.472756 3.062109,-0.537832 2.83751,-0.07139 2.973395,-0.05023 2.973395,0.463021 0,0.509739 -0.159944,0.537832 -3.062109,0.537832 -2.773701,0 -3.053753,-0.04361 -2.973395,-0.463021 z m -20.42283,-10.64948 c 0,-0.411574 0.176389,-0.529166 0.79375,-0.529166 0.617361,0 0.79375,0.117592 0.79375,0.529166 0,0.411575 -0.176389,0.529167 -0.79375,0.529167 -0.617361,0 -0.79375,-0.117592 -0.79375,-0.529167 z m 2.645833,0 c 0,-0.440972 0.176389,-0.529166 1.058334,-0.529166 0.881944,0 1.058333,0.08819 1.058333,0.529166 0,0.440973 -0.176389,0.529167 -1.058333,0.529167 -0.881945,0 -1.058334,-0.08819 -1.058334,-0.529167 z m 3.175,0 c 0,-0.440972 0.176389,-0.529166 1.058334,-0.529166 0.881944,0 1.058333,0.08819 1.058333,0.529166 0,0.440973 -0.176389,0.529167 -1.058333,0.529167 -0.881945,0 -1.058334,-0.08819 -1.058334,-0.529167 z m 3.175001,0 c 0,-0.440972 0.176389,-0.529166 1.058333,-0.529166 0.881944,0 1.058333,0.08819 1.058333,0.529166 0,0.440973 -0.176389,0.529167 -1.058333,0.529167 -0.881944,0 -1.058333,-0.08819 -1.058333,-0.529167 z m 3.175,0 c 0,-0.440972 0.176389,-0.529166 1.058333,-0.529166 0.881944,0 1.058333,0.08819 1.058333,0.529166 0,0.440973 -0.176389,0.529167 -1.058333,0.529167 -0.881944,0 -1.058333,-0.08819 -1.058333,-0.529167 z m 3.175,0 c 0,-0.440972 0.176389,-0.529166 1.058333,-0.529166 0.881944,0 1.058333,0.08819 1.058333,0.529166 0,0.440973 -0.176389,0.529167 -1.058333,0.529167 -0.881944,0 -1.058333,-0.08819 -1.058333,-0.529167 z m 3.175,0 c 0,-0.440972 0.176389,-0.529166 1.058333,-0.529166 0.881945,0 1.058334,0.08819 1.058334,0.529166 0,0.440973 -0.176389,0.529167 -1.058334,0.529167 -0.881944,0 -1.058333,-0.08819 -1.058333,-0.529167 z m 3.175,0 c 0,-0.440972 0.176389,-0.529166 1.058333,-0.529166 0.881945,0 1.058334,0.08819 1.058334,0.529166 0,0.440973 -0.176389,0.529167 -1.058334,0.529167 -0.881944,0 -1.058333,-0.08819 -1.058333,-0.529167 z m 3.175,0 c 0,-0.411574 0.176389,-0.529166 0.79375,-0.529166 0.617361,0 0.79375,0.117592 0.79375,0.529166 0,0.411575 -0.176389,0.529167 -0.79375,0.529167 -0.617361,0 -0.79375,-0.117592 -0.79375,-0.529167 z"
         id="path965" />
      <path
         style="fill:#767676;fill-opacity:1;stroke-width:0.264583"
         d="m 22.946527,97.423776 c 0,-0.411575 0.176389,-0.529167 0.79375,-0.529167 0.617361,0 0.79375,0.117592 0.79375,0.529167 0,0.411574 -0.176389,0.529166 -0.79375,0.529166 -0.617361,0 -0.79375,-0.117592 -0.79375,-0.529166 z m 2.645833,0 c 0,-0.440973 0.176389,-0.529167 1.058334,-0.529167 0.881944,0 1.058333,0.08819 1.058333,0.529167 0,0.440972 -0.176389,0.529166 -1.058333,0.529166 -0.881945,0 -1.058334,-0.08819 -1.058334,-0.529166 z m 3.175,0 c 0,-0.440973 0.176389,-0.529167 1.058334,-0.529167 0.881944,0 1.058333,0.08819 1.058333,0.529167 0,0.440972 -0.176389,0.529166 -1.058333,0.529166 -0.881945,0 -1.058334,-0.08819 -1.058334,-0.529166 z m 3.175001,0 c 0,-0.440973 0.176389,-0.529167 1.058333,-0.529167 0.881944,0 1.058333,0.08819 1.058333,0.529167 0,0.440972 -0.176389,0.529166 -1.058333,0.529166 -0.881944,0 -1.058333,-0.08819 -1.058333,-0.529166 z m 3.175,0 c 0,-0.440973 0.176389,-0.529167 1.058333,-0.529167 0.881944,0 1.058333,0.08819 1.058333,0.529167 0,0.440972 -0.176389,0.529166 -1.058333,0.529166 -0.881944,0 -1.058333,-0.08819 -1.058333,-0.529166 z m 3.175,0 c 0,-0.440973 0.176389,-0.529167 1.058333,-0.529167 0.881944,0 1.058333,0.08819 1.058333,0.529167 0,0.440972 -0.176389,0.529166 -1.058333,0.529166 -0.881944,0 -1.058333,-0.08819 -1.058333,-0.529166 z m 3.175,0 c 0,-0.440973 0.176389,-0.529167 1.058333,-0.529167 0.881945,0 1.058334,0.08819 1.058334,0.529167 0,0.440972 -0.176389,0.529166 -1.058334,0.529166 -0.881944,0 -1.058333,-0.08819 -1.058333,-0.529166 z m 3.175,0 c 0,-0.440973 0.176389,-0.529167 1.058333,-0.529167 0.881945,0 1.058334,0.08819 1.058334,0.529167 0,0.440972 -0.176389,0.529166 -1.058334,0.529166 -0.881944,0 -1.058333,-0.08819 -1.058333,-0.529166 z m 3.175,0 c 0,-0.411575 0.176389,-0.529167 0.79375,-0.529167 0.617361,0 0.79375,0.117592 0.79375,0.529167 0,0.411574 -0.176389,0.529166 -0.79375,0.529166 -0.617361,0 -0.79375,-0.117592 -0.79375,-0.529166 z m -16.523305,-2.93436 c -0.711965,-0.625114 -1.080954,-1.294983 -1.566731,-2.844271 -0.349487,-1.114618 -0.718916,-2.532594 -0.820954,-3.151057 l -0.185523,-1.124479 h -2.887161 c -2.710771,0 -2.88716,-0.03233 -2.88716,-0.529167 0,-0.49563 0.176389,-0.529167 2.783166,-0.529167 h 2.783166 l -0.164958,-0.727604 c -0.795871,-3.510476 -1.330519,-5.093229 -1.720473,-5.093229 -0.279229,0 -1.242237,1.254374 -1.439034,1.874425 -0.126141,0.397438 -0.315494,0.471229 -0.8708,0.339353 -1.391199,-0.330387 -1.422423,-0.419321 -0.674305,-1.920599 1.200802,-2.409695 3.200829,-3.108459 4.602469,-1.607999 0.951647,1.018742 1.38283,2.336473 2.502217,7.646978 0.871285,4.13348 1.543256,6.110984 2.138521,6.293318 0.155472,0.04762 0.560419,-0.506403 0.89988,-1.231167 0.846311,-1.806909 1.760272,-2.610953 3.293478,-2.897387 0.791569,-0.147881 1.538342,-0.500409 1.966038,-0.928105 l 0.68965,-0.68965 h -3.868283 c -3.283293,0 -3.892571,-0.06329 -4.028883,-0.418515 -0.08833,-0.230183 -0.160599,-0.465359 -0.160599,-0.522612 0,-0.05725 1.934766,-0.136813 4.299479,-0.176799 l 4.29948,-0.0727 1.069302,-3.042709 c 0.588117,-1.673489 1.202167,-3.282165 1.364556,-3.574835 0.916364,-1.65154 2.814682,-2.150677 4.313017,-1.13405 0.979728,0.664749 2.01124,2.281799 2.159902,3.385969 0.07754,0.575936 -0.02949,0.678562 -0.827857,0.79375 -0.877379,0.126587 -0.945827,0.07525 -1.5875,-1.190625 -1.271633,-2.508646 -2.051496,-1.903684 -3.581318,2.778125 -1.547648,4.736359 -2.869514,6.390198 -5.455461,6.825541 -1.081868,0.182131 -1.214595,0.299842 -1.999035,1.772867 -1.440459,2.7049 -2.728814,3.197335 -4.438286,1.6964 z m 12.075301,-7.582828 c 0.07717,-0.40277 0.475631,-0.472756 3.062109,-0.537832 2.83751,-0.07139 2.973395,-0.05023 2.973395,0.463021 0,0.509739 -0.159944,0.537832 -3.062109,0.537832 -2.773701,0 -3.053753,-0.04361 -2.973395,-0.463021 z m -20.42283,-10.64948 c 0,-0.411574 0.176389,-0.529166 0.79375,-0.529166 0.617361,0 0.79375,0.117592 0.79375,0.529166 0,0.411575 -0.176389,0.529167 -0.79375,0.529167 -0.617361,0 -0.79375,-0.117592 -0.79375,-0.529167 z m 2.645833,0 c 0,-0.440972 0.176389,-0.529166 1.058334,-0.529166 0.881944,0 1.058333,0.08819 1.058333,0.529166 0,0.440973 -0.176389,0.529167 -1.058333,0.529167 -0.881945,0 -1.058334,-0.08819 -1.058334,-0.529167 z m 3.175,0 c 0,-0.440972 0.176389,-0.529166 1.058334,-0.529166 0.881944,0 1.058333,0.08819 1.058333,0.529166 0,0.440973 -0.176389,0.529167 -1.058333,0.529167 -0.881945,0 -1.058334,-0.08819 -1.058334,-0.529167 z m 3.175001,0 c 0,-0.440972 0.176389,-0.529166 1.058333,-0.529166 0.881944,0 1.058333,0.08819 1.058333,0.529166 0,0.440973 -0.176389,0.529167 -1.058333,0.529167 -0.881944,0 -1.058333,-0.08819 -1.058333,-0.529167 z m 3.175,0 c 0,-0.440972 0.176389,-0.529166 1.058333,-0.529166 0.881944,0 1.058333,0.08819 1.058333,0.529166 0,0.440973 -0.176389,0.529167 -1.058333,0.529167 -0.881944,0 -1.058333,-0.08819 -1.058333,-0.529167 z m 3.175,0 c 0,-0.440972 0.176389,-0.529166 1.058333,-0.529166 0.881944,0 1.058333,0.08819 1.058333,0.529166 0,0.440973 -0.176389,0.529167 -1.058333,0.529167 -0.881944,0 -1.058333,-0.08819 -1.058333,-0.529167 z m 3.175,0 c 0,-0.440972 0.176389,-0.529166 1.058333,-0.529166 0.881945,0 1.058334,0.08819 1.058334,0.529166 0,0.440973 -0.176389,0.529167 -1.058334,0.529167 -0.881944,0 -1.058333,-0.08819 -1.058333,-0.529167 z m 3.175,0 c 0,-0.440972 0.176389,-0.529166 1.058333,-0.529166 0.881945,0 1.058334,0.08819 1.058334,0.529166 0,0.440973 -0.176389,0.529167 -1.058334,0.529167 -0.881944,0 -1.058333,-0.08819 -1.058333,-0.529167 z m 3.175,0 c 0,-0.411574 0.176389,-0.529166 0.79375,-0.529166 0.617361,0 0.79375,0.117592 0.79375,0.529166 0,0.411575 -0.176389,0.529167 -0.79375,0.529167 -0.617361,0 -0.79375,-0.117592 -0.79375,-0.529167 z"
         id="path963" />
      <path
         style="fill:#606060;fill-opacity:1;stroke-width:0.264583"
         d="m 22.946527,97.423776 c 0,-0.411575 0.176389,-0.529167 0.79375,-0.529167 0.617361,0 0.79375,0.117592 0.79375,0.529167 0,0.411574 -0.176389,0.529166 -0.79375,0.529166 -0.617361,0 -0.79375,-0.117592 -0.79375,-0.529166 z m 2.645833,0 c 0,-0.440973 0.176389,-0.529167 1.058334,-0.529167 0.881944,0 1.058333,0.08819 1.058333,0.529167 0,0.440972 -0.176389,0.529166 -1.058333,0.529166 -0.881945,0 -1.058334,-0.08819 -1.058334,-0.529166 z m 3.175,0 c 0,-0.440973 0.176389,-0.529167 1.058334,-0.529167 0.881944,0 1.058333,0.08819 1.058333,0.529167 0,0.440972 -0.176389,0.529166 -1.058333,0.529166 -0.881945,0 -1.058334,-0.08819 -1.058334,-0.529166 z m 3.175001,0 c 0,-0.440973 0.176389,-0.529167 1.058333,-0.529167 0.881944,0 1.058333,0.08819 1.058333,0.529167 0,0.440972 -0.176389,0.529166 -1.058333,0.529166 -0.881944,0 -1.058333,-0.08819 -1.058333,-0.529166 z m 3.175,0 c 0,-0.440973 0.176389,-0.529167 1.058333,-0.529167 0.881944,0 1.058333,0.08819 1.058333,0.529167 0,0.440972 -0.176389,0.529166 -1.058333,0.529166 -0.881944,0 -1.058333,-0.08819 -1.058333,-0.529166 z m 3.175,0 c 0,-0.440973 0.176389,-0.529167 1.058333,-0.529167 0.881944,0 1.058333,0.08819 1.058333,0.529167 0,0.440972 -0.176389,0.529166 -1.058333,0.529166 -0.881944,0 -1.058333,-0.08819 -1.058333,-0.529166 z m 3.175,0 c 0,-0.440973 0.176389,-0.529167 1.058333,-0.529167 0.881945,0 1.058334,0.08819 1.058334,0.529167 0,0.440972 -0.176389,0.529166 -1.058334,0.529166 -0.881944,0 -1.058333,-0.08819 -1.058333,-0.529166 z m 3.175,0 c 0,-0.440973 0.176389,-0.529167 1.058333,-0.529167 0.881945,0 1.058334,0.08819 1.058334,0.529167 0,0.440972 -0.176389,0.529166 -1.058334,0.529166 -0.881944,0 -1.058333,-0.08819 -1.058333,-0.529166 z m 3.175,0 c 0,-0.411575 0.176389,-0.529167 0.79375,-0.529167 0.617361,0 0.79375,0.117592 0.79375,0.529167 0,0.411574 -0.176389,0.529166 -0.79375,0.529166 -0.617361,0 -0.79375,-0.117592 -0.79375,-0.529166 z M 31.499911,94.678017 C 30.53405,93.865298 29.792522,92.208974 29.145981,89.42013 l -0.475375,-2.050521 h -2.86204 c -2.68565,0 -2.862039,-0.03261 -2.862039,-0.529167 0,-0.495783 0.176389,-0.529167 2.795955,-0.529167 2.53824,0 2.783417,-0.04268 2.65994,-0.463021 -0.07481,-0.254661 -0.21786,-0.93927 -0.317894,-1.521354 -0.291171,-1.694286 -1.173264,-3.836458 -1.579759,-3.836458 -0.204868,0 -0.627667,0.506015 -0.939554,1.124479 -0.311886,0.618464 -0.592592,1.154718 -0.62379,1.191677 -0.0312,0.03696 -0.494816,-0.08447 -1.030262,-0.269849 l -0.973537,-0.337047 0.702646,-1.410027 c 0.699877,-1.40447 1.879661,-2.412947 2.825123,-2.414911 0.949885,-0.002 1.990979,0.794417 2.551102,1.951478 0.312353,0.645234 0.96615,3.059498 1.452884,5.36503 0.486733,2.305533 1.01432,4.668128 1.172415,5.250212 0.315484,1.161566 0.981391,2.248958 1.377237,2.248958 0.139104,0 0.532993,-0.625078 0.875307,-1.389062 0.808121,-1.803582 1.621908,-2.521902 3.188675,-2.814606 0.788534,-0.147314 1.535764,-0.500401 1.962877,-0.927515 l 0.68965,-0.68965 H 35.86981 c -3.627373,0 -3.874161,-0.03223 -4.002432,-0.52274 -0.131414,-0.502529 0.02851,-0.525545 4.136329,-0.595312 l 4.273029,-0.07257 1.066712,-3.042709 c 0.586692,-1.673489 1.288982,-3.376215 1.560645,-3.783836 1.734373,-2.602362 4.907883,-1.632489 6.111181,1.86767 0.383877,1.116624 0.201161,1.376165 -0.973593,1.382948 -0.552491,0.0032 -0.764195,-0.175162 -0.995493,-0.838664 -0.613309,-1.759338 -1.791162,-2.326289 -2.509243,-1.207805 -0.210209,0.327422 -0.811147,1.885625 -1.335418,3.462674 -0.524272,1.577048 -1.179843,3.311576 -1.456825,3.854506 -0.77274,1.514696 -2.400461,2.84607 -3.752345,3.069183 -1.460539,0.241047 -1.713311,0.453936 -2.380532,2.004935 -0.667662,1.552021 -1.219405,2.073806 -2.394515,2.2645 -0.721293,0.11705 -1.073454,0.0075 -1.717399,-0.534369 z m 11.923517,-7.726923 c 0.08833,-0.230183 0.1606,-0.468308 0.1606,-0.529166 0,-0.06086 1.309687,-0.110653 2.910416,-0.110653 2.734028,0 2.910417,0.03207 2.910417,0.529167 0,0.498773 -0.176389,0.529167 -3.071016,0.529167 -2.691663,0 -3.051177,-0.0517 -2.910417,-0.418515 z M 22.946527,76.257108 c 0,-0.411574 0.176389,-0.529166 0.79375,-0.529166 0.617361,0 0.79375,0.117592 0.79375,0.529166 0,0.411575 -0.176389,0.529167 -0.79375,0.529167 -0.617361,0 -0.79375,-0.117592 -0.79375,-0.529167 z m 2.645833,0 c 0,-0.440972 0.176389,-0.529166 1.058334,-0.529166 0.881944,0 1.058333,0.08819 1.058333,0.529166 0,0.440973 -0.176389,0.529167 -1.058333,0.529167 -0.881945,0 -1.058334,-0.08819 -1.058334,-0.529167 z m 3.175,0 c 0,-0.440972 0.176389,-0.529166 1.058334,-0.529166 0.881944,0 1.058333,0.08819 1.058333,0.529166 0,0.440973 -0.176389,0.529167 -1.058333,0.529167 -0.881945,0 -1.058334,-0.08819 -1.058334,-0.529167 z m 3.175001,0 c 0,-0.440972 0.176389,-0.529166 1.058333,-0.529166 0.881944,0 1.058333,0.08819 1.058333,0.529166 0,0.440973 -0.176389,0.529167 -1.058333,0.529167 -0.881944,0 -1.058333,-0.08819 -1.058333,-0.529167 z m 3.175,0 c 0,-0.440972 0.176389,-0.529166 1.058333,-0.529166 0.881944,0 1.058333,0.08819 1.058333,0.529166 0,0.440973 -0.176389,0.529167 -1.058333,0.529167 -0.881944,0 -1.058333,-0.08819 -1.058333,-0.529167 z m 3.175,0 c 0,-0.440972 0.176389,-0.529166 1.058333,-0.529166 0.881944,0 1.058333,0.08819 1.058333,0.529166 0,0.440973 -0.176389,0.529167 -1.058333,0.529167 -0.881944,0 -1.058333,-0.08819 -1.058333,-0.529167 z m 3.175,0 c 0,-0.440972 0.176389,-0.529166 1.058333,-0.529166 0.881945,0 1.058334,0.08819 1.058334,0.529166 0,0.440973 -0.176389,0.529167 -1.058334,0.529167 -0.881944,0 -1.058333,-0.08819 -1.058333,-0.529167 z m 3.175,0 c 0,-0.440972 0.176389,-0.529166 1.058333,-0.529166 0.881945,0 1.058334,0.08819 1.058334,0.529166 0,0.440973 -0.176389,0.529167 -1.058334,0.529167 -0.881944,0 -1.058333,-0.08819 -1.058333,-0.529167 z m 3.175,0 c 0,-0.411574 0.176389,-0.529166 0.79375,-0.529166 0.617361,0 0.79375,0.117592 0.79375,0.529166 0,0.411575 -0.176389,0.529167 -0.79375,0.529167 -0.617361,0 -0.79375,-0.117592 -0.79375,-0.529167 z"
         id="path961" />
      <path
         style="fill:#494949;fill-opacity:1;stroke-width:0.264583"
         d="m 22.946527,97.423776 c 0,-0.411575 0.176389,-0.529167 0.79375,-0.529167 0.617361,0 0.79375,0.117592 0.79375,0.529167 0,0.411574 -0.176389,0.529166 -0.79375,0.529166 -0.617361,0 -0.79375,-0.117592 -0.79375,-0.529166 z m 2.645833,0 c 0,-0.440973 0.176389,-0.529167 1.058334,-0.529167 0.881944,0 1.058333,0.08819 1.058333,0.529167 0,0.440972 -0.176389,0.529166 -1.058333,0.529166 -0.881945,0 -1.058334,-0.08819 -1.058334,-0.529166 z m 3.175,0 c 0,-0.440973 0.176389,-0.529167 1.058334,-0.529167 0.881944,0 1.058333,0.08819 1.058333,0.529167 0,0.440972 -0.176389,0.529166 -1.058333,0.529166 -0.881945,0 -1.058334,-0.08819 -1.058334,-0.529166 z m 3.175001,0 c 0,-0.440973 0.176389,-0.529167 1.058333,-0.529167 0.881944,0 1.058333,0.08819 1.058333,0.529167 0,0.440972 -0.176389,0.529166 -1.058333,0.529166 -0.881944,0 -1.058333,-0.08819 -1.058333,-0.529166 z m 3.175,0 c 0,-0.440973 0.176389,-0.529167 1.058333,-0.529167 0.881944,0 1.058333,0.08819 1.058333,0.529167 0,0.440972 -0.176389,0.529166 -1.058333,0.529166 -0.881944,0 -1.058333,-0.08819 -1.058333,-0.529166 z m 3.175,0 c 0,-0.440973 0.176389,-0.529167 1.058333,-0.529167 0.881944,0 1.058333,0.08819 1.058333,0.529167 0,0.440972 -0.176389,0.529166 -1.058333,0.529166 -0.881944,0 -1.058333,-0.08819 -1.058333,-0.529166 z m 3.175,0 c 0,-0.440973 0.176389,-0.529167 1.058333,-0.529167 0.881945,0 1.058334,0.08819 1.058334,0.529167 0,0.440972 -0.176389,0.529166 -1.058334,0.529166 -0.881944,0 -1.058333,-0.08819 -1.058333,-0.529166 z m 3.175,0 c 0,-0.440973 0.176389,-0.529167 1.058333,-0.529167 0.881945,0 1.058334,0.08819 1.058334,0.529167 0,0.440972 -0.176389,0.529166 -1.058334,0.529166 -0.881944,0 -1.058333,-0.08819 -1.058333,-0.529166 z m 3.175,0 c 0,-0.411575 0.176389,-0.529167 0.79375,-0.529167 0.617361,0 0.79375,0.117592 0.79375,0.529167 0,0.411574 -0.176389,0.529166 -0.79375,0.529166 -0.617361,0 -0.79375,-0.117592 -0.79375,-0.529166 z M 32.074652,95.056983 C 30.837563,94.550652 29.880255,92.697329 29.163014,89.42013 l -0.448772,-2.050521 h -2.883857 c -2.707469,0 -2.883858,-0.03237 -2.883858,-0.529167 0,-0.495569 0.176389,-0.529167 2.778125,-0.529167 1.527969,0 2.778125,-0.07456 2.778125,-0.165686 0,-0.640234 -1.155202,-4.892734 -1.43193,-5.271182 -0.485155,-0.663489 -1.07967,-0.336856 -1.62129,0.890755 -0.435359,0.986763 -0.508425,1.034584 -1.254013,0.820753 -0.435444,-0.124884 -0.846945,-0.28229 -0.914445,-0.34979 -0.269015,-0.269015 0.516952,-1.968903 1.263321,-2.732307 1.527997,-1.562872 3.306527,-1.338861 4.263521,0.537003 0.724009,1.419173 1.10885,2.813547 1.949693,7.064204 0.762036,3.852269 1.553918,6.085417 2.15791,6.085417 0.208369,0 0.657114,-0.625078 0.997211,-1.389062 0.805673,-1.80984 1.608836,-2.522901 3.17026,-2.814606 0.788534,-0.147314 1.535764,-0.500401 1.962877,-0.927515 l 0.68965,-0.68965 H 35.86981 c -3.643216,0 -3.873697,-0.03046 -4.004112,-0.529167 -0.134165,-0.513046 -0.0081,-0.529167 4.13755,-0.529167 h 4.275931 l 1.022062,-3.027052 c 0.562134,-1.664878 1.298039,-3.433187 1.635343,-3.929575 1.731251,-2.547765 4.827879,-1.594975 6.047078,1.860602 0.338328,0.958924 0.336412,1.103196 -0.01645,1.238602 -0.996885,0.38254 -1.62604,0.156736 -1.921025,-0.689459 -0.61345,-1.759745 -1.790008,-2.325674 -2.511009,-1.207805 -0.211179,0.327422 -0.8707,2.013135 -1.465602,3.746031 -0.594901,1.732895 -1.322396,3.540272 -1.616655,4.016394 -0.865201,1.399924 -2.210251,2.417664 -3.469892,2.625514 -1.459087,0.24076 -1.687574,0.438029 -2.502448,2.16053 -0.874014,1.847514 -2.035169,2.512968 -3.40593,1.951926 z m 11.348776,-8.105889 c 0.08833,-0.230183 0.1606,-0.468308 0.1606,-0.529166 0,-0.06086 1.309687,-0.110653 2.910416,-0.110653 2.734028,0 2.910417,0.03207 2.910417,0.529167 0,0.498773 -0.176389,0.529167 -3.071016,0.529167 -2.691663,0 -3.051177,-0.0517 -2.910417,-0.418515 z M 22.946527,76.257108 c 0,-0.411574 0.176389,-0.529166 0.79375,-0.529166 0.617361,0 0.79375,0.117592 0.79375,0.529166 0,0.411575 -0.176389,0.529167 -0.79375,0.529167 -0.617361,0 -0.79375,-0.117592 -0.79375,-0.529167 z m 2.645833,0 c 0,-0.440972 0.176389,-0.529166 1.058334,-0.529166 0.881944,0 1.058333,0.08819 1.058333,0.529166 0,0.440973 -0.176389,0.529167 -1.058333,0.529167 -0.881945,0 -1.058334,-0.08819 -1.058334,-0.529167 z m 3.175,0 c 0,-0.440972 0.176389,-0.529166 1.058334,-0.529166 0.881944,0 1.058333,0.08819 1.058333,0.529166 0,0.440973 -0.176389,0.529167 -1.058333,0.529167 -0.881945,0 -1.058334,-0.08819 -1.058334,-0.529167 z m 3.175001,0 c 0,-0.440972 0.176389,-0.529166 1.058333,-0.529166 0.881944,0 1.058333,0.08819 1.058333,0.529166 0,0.440973 -0.176389,0.529167 -1.058333,0.529167 -0.881944,0 -1.058333,-0.08819 -1.058333,-0.529167 z m 3.175,0 c 0,-0.440972 0.176389,-0.529166 1.058333,-0.529166 0.881944,0 1.058333,0.08819 1.058333,0.529166 0,0.440973 -0.176389,0.529167 -1.058333,0.529167 -0.881944,0 -1.058333,-0.08819 -1.058333,-0.529167 z m 3.175,0 c 0,-0.440972 0.176389,-0.529166 1.058333,-0.529166 0.881944,0 1.058333,0.08819 1.058333,0.529166 0,0.440973 -0.176389,0.529167 -1.058333,0.529167 -0.881944,0 -1.058333,-0.08819 -1.058333,-0.529167 z m 3.175,0 c 0,-0.440972 0.176389,-0.529166 1.058333,-0.529166 0.881945,0 1.058334,0.08819 1.058334,0.529166 0,0.440973 -0.176389,0.529167 -1.058334,0.529167 -0.881944,0 -1.058333,-0.08819 -1.058333,-0.529167 z m 3.175,0 c 0,-0.440972 0.176389,-0.529166 1.058333,-0.529166 0.881945,0 1.058334,0.08819 1.058334,0.529166 0,0.440973 -0.176389,0.529167 -1.058334,0.529167 -0.881944,0 -1.058333,-0.08819 -1.058333,-0.529167 z m 3.175,0 c 0,-0.411574 0.176389,-0.529166 0.79375,-0.529166 0.617361,0 0.79375,0.117592 0.79375,0.529166 0,0.411575 -0.176389,0.529167 -0.79375,0.529167 -0.617361,0 -0.79375,-0.117592 -0.79375,-0.529167 z"
         id="path959" />
      <path
         style="fill:#333333;fill-opacity:1;stroke-width:0.264583"
         d="m 22.946527,97.423776 c 0,-0.411575 0.176389,-0.529167 0.79375,-0.529167 0.617361,0 0.79375,0.117592 0.79375,0.529167 0,0.411574 -0.176389,0.529166 -0.79375,0.529166 -0.617361,0 -0.79375,-0.117592 -0.79375,-0.529166 z m 2.645833,0 c 0,-0.440973 0.176389,-0.529167 1.058334,-0.529167 0.881944,0 1.058333,0.08819 1.058333,0.529167 0,0.440972 -0.176389,0.529166 -1.058333,0.529166 -0.881945,0 -1.058334,-0.08819 -1.058334,-0.529166 z m 3.175,0 c 0,-0.440973 0.176389,-0.529167 1.058334,-0.529167 0.881944,0 1.058333,0.08819 1.058333,0.529167 0,0.440972 -0.176389,0.529166 -1.058333,0.529166 -0.881945,0 -1.058334,-0.08819 -1.058334,-0.529166 z m 3.175001,0 c 0,-0.440973 0.176389,-0.529167 1.058333,-0.529167 0.881944,0 1.058333,0.08819 1.058333,0.529167 0,0.440972 -0.176389,0.529166 -1.058333,0.529166 -0.881944,0 -1.058333,-0.08819 -1.058333,-0.529166 z m 3.175,0 c 0,-0.440973 0.176389,-0.529167 1.058333,-0.529167 0.881944,0 1.058333,0.08819 1.058333,0.529167 0,0.440972 -0.176389,0.529166 -1.058333,0.529166 -0.881944,0 -1.058333,-0.08819 -1.058333,-0.529166 z m 3.175,0 c 0,-0.440973 0.176389,-0.529167 1.058333,-0.529167 0.881944,0 1.058333,0.08819 1.058333,0.529167 0,0.440972 -0.176389,0.529166 -1.058333,0.529166 -0.881944,0 -1.058333,-0.08819 -1.058333,-0.529166 z m 3.175,0 c 0,-0.440973 0.176389,-0.529167 1.058333,-0.529167 0.881945,0 1.058334,0.08819 1.058334,0.529167 0,0.440972 -0.176389,0.529166 -1.058334,0.529166 -0.881944,0 -1.058333,-0.08819 -1.058333,-0.529166 z m 3.175,0 c 0,-0.440973 0.176389,-0.529167 1.058333,-0.529167 0.881945,0 1.058334,0.08819 1.058334,0.529167 0,0.440972 -0.176389,0.529166 -1.058334,0.529166 -0.881944,0 -1.058333,-0.08819 -1.058333,-0.529166 z m 3.175,0 c 0,-0.411575 0.176389,-0.529167 0.79375,-0.529167 0.617361,0 0.79375,0.117592 0.79375,0.529167 0,0.411574 -0.176389,0.529166 -0.79375,0.529166 -0.617361,0 -0.79375,-0.117592 -0.79375,-0.529166 z M 32.206944,95.120253 c -1.297165,-0.474186 -2.240742,-2.293258 -3.061601,-5.9023 l -0.420397,-1.848344 h -2.88921 c -2.71282,0 -2.889209,-0.03231 -2.889209,-0.529167 0,-0.495569 0.176389,-0.529167 2.778125,-0.529167 1.527969,0 2.778125,-0.07456 2.778125,-0.165686 0,-0.640234 -1.155202,-4.892734 -1.43193,-5.271182 -0.475545,-0.650347 -1.043527,-0.351972 -1.645298,0.864315 -0.482639,0.975499 -0.555202,1.018625 -1.362118,0.809532 -0.992489,-0.25718 -1.025024,-0.419211 -0.348903,-1.737623 1.145816,-2.2343 2.81847,-2.946991 4.196022,-1.787858 1.02528,0.862716 1.684118,2.584125 2.435118,6.362461 1.116106,5.615212 1.831329,7.805208 2.549072,7.805208 0.199606,0 0.722312,-0.711952 1.161569,-1.582115 0.90056,-1.784 1.620528,-2.370078 3.166203,-2.577396 0.659206,-0.08842 1.332035,-0.407944 1.760524,-0.836072 L 39.67658,87.5019 35.80947,87.428681 c -3.64852,-0.06908 -3.867109,-0.10273 -3.867109,-0.595312 0,-0.497769 0.195321,-0.522094 4.192317,-0.522094 h 4.192318 l 0.999986,-2.976562 c 0.549992,-1.63711 1.277168,-3.411947 1.615946,-3.944083 1.248463,-1.961026 3.686536,-1.921624 5.138712,0.08305 0.928587,1.281878 1.265982,2.574829 0.75619,2.897848 -0.782157,0.495599 -1.490959,0.255407 -1.791642,-0.607132 -0.61376,-1.760634 -1.78748,-2.324328 -2.514886,-1.207805 -0.213313,0.327422 -0.921155,2.12762 -1.572981,4.000441 -0.67714,1.94555 -1.512432,3.816837 -1.948699,4.365625 -0.865711,1.088994 -2.745127,2.151121 -3.806372,2.151121 -0.612718,0 -0.834902,0.243779 -1.587842,1.742165 -1.052526,2.094577 -2.080704,2.789683 -3.408464,2.304313 z m 11.216484,-8.169159 c 0.08833,-0.230183 0.1606,-0.468308 0.1606,-0.529166 0,-0.06086 1.309687,-0.110653 2.910416,-0.110653 2.734028,0 2.910417,0.03207 2.910417,0.529167 0,0.498773 -0.176389,0.529167 -3.071016,0.529167 -2.691663,0 -3.051177,-0.0517 -2.910417,-0.418515 z M 22.946527,76.257108 c 0,-0.411574 0.176389,-0.529166 0.79375,-0.529166 0.617361,0 0.79375,0.117592 0.79375,0.529166 0,0.411575 -0.176389,0.529167 -0.79375,0.529167 -0.617361,0 -0.79375,-0.117592 -0.79375,-0.529167 z m 2.645833,0 c 0,-0.440972 0.176389,-0.529166 1.058334,-0.529166 0.881944,0 1.058333,0.08819 1.058333,0.529166 0,0.440973 -0.176389,0.529167 -1.058333,0.529167 -0.881945,0 -1.058334,-0.08819 -1.058334,-0.529167 z m 3.175,0 c 0,-0.440972 0.176389,-0.529166 1.058334,-0.529166 0.881944,0 1.058333,0.08819 1.058333,0.529166 0,0.440973 -0.176389,0.529167 -1.058333,0.529167 -0.881945,0 -1.058334,-0.08819 -1.058334,-0.529167 z m 3.175001,0 c 0,-0.440972 0.176389,-0.529166 1.058333,-0.529166 0.881944,0 1.058333,0.08819 1.058333,0.529166 0,0.440973 -0.176389,0.529167 -1.058333,0.529167 -0.881944,0 -1.058333,-0.08819 -1.058333,-0.529167 z m 3.175,0 c 0,-0.440972 0.176389,-0.529166 1.058333,-0.529166 0.881944,0 1.058333,0.08819 1.058333,0.529166 0,0.440973 -0.176389,0.529167 -1.058333,0.529167 -0.881944,0 -1.058333,-0.08819 -1.058333,-0.529167 z m 3.175,0 c 0,-0.440972 0.176389,-0.529166 1.058333,-0.529166 0.881944,0 1.058333,0.08819 1.058333,0.529166 0,0.440973 -0.176389,0.529167 -1.058333,0.529167 -0.881944,0 -1.058333,-0.08819 -1.058333,-0.529167 z m 3.175,0 c 0,-0.440972 0.176389,-0.529166 1.058333,-0.529166 0.881945,0 1.058334,0.08819 1.058334,0.529166 0,0.440973 -0.176389,0.529167 -1.058334,0.529167 -0.881944,0 -1.058333,-0.08819 -1.058333,-0.529167 z m 3.175,0 c 0,-0.440972 0.176389,-0.529166 1.058333,-0.529166 0.881945,0 1.058334,0.08819 1.058334,0.529166 0,0.440973 -0.176389,0.529167 -1.058334,0.529167 -0.881944,0 -1.058333,-0.08819 -1.058333,-0.529167 z m 3.175,0 c 0,-0.411574 0.176389,-0.529166 0.79375,-0.529166 0.617361,0 0.79375,0.117592 0.79375,0.529166 0,0.411575 -0.176389,0.529167 -0.79375,0.529167 -0.617361,0 -0.79375,-0.117592 -0.79375,-0.529167 z"
         id="path957" />
    </g>
  </g>
</svg>
