<?xml version="1.0" encoding="UTF-8" standalone="no"?>
<svg
   xmlns:osb="http://www.openswatchbook.org/uri/2009/osb"
   xmlns:dc="http://purl.org/dc/elements/1.1/"
   xmlns:cc="http://creativecommons.org/ns#"
   xmlns:rdf="http://www.w3.org/1999/02/22-rdf-syntax-ns#"
   xmlns:svg="http://www.w3.org/2000/svg"
   xmlns="http://www.w3.org/2000/svg"
   xmlns:xlink="http://www.w3.org/1999/xlink"
   xmlns:sodipodi="http://sodipodi.sourceforge.net/DTD/sodipodi-0.dtd"
   xmlns:inkscape="http://www.inkscape.org/namespaces/inkscape"
   height="24px"
   viewBox="0 0 24 24"
   width="24px"
   fill="#000000"
   version="1.1"
   id="svg6"
   sodipodi:docname="icon.svg"
   inkscape:version="1.0.2 (e86c870879, 2021-01-15)">
  <metadata
     id="metadata12">
    <rdf:RDF>
      <cc:Work
         rdf:about="">
        <dc:format>image/svg+xml</dc:format>
        <dc:type
           rdf:resource="http://purl.org/dc/dcmitype/StillImage" />
        <dc:title />
      </cc:Work>
    </rdf:RDF>
  </metadata>
  <defs
     id="defs10">
    <linearGradient
       inkscape:collect="always"
       id="linearGradient876">
      <stop
         style="stop-color:#3366cc;stop-opacity:1;"
         offset="0"
         id="stop872" />
      <stop
         style="stop-color:#3366cc;stop-opacity:0;"
         offset="1"
         id="stop874" />
    </linearGradient>
    <linearGradient
       id="linearGradient868"
       osb:paint="solid">
      <stop
         style="stop-color:#ffffff;stop-opacity:1;"
         offset="0"
         id="stop866" />
    </linearGradient>
    <linearGradient
       inkscape:collect="always"
       xlink:href="#linearGradient876"
       id="linearGradient52"
       gradientUnits="userSpaceOnUse"
       x1="4"
       y1="12"
       x2="20"
       y2="12"
       gradientTransform="translate(-2.6e-5)" />
  </defs>
  <sodipodi:namedview
     pagecolor="#ffffff"
     bordercolor="#666666"
     borderopacity="1"
     objecttolerance="10"
     gridtolerance="10"
     guidetolerance="10"
     inkscape:pageopacity="0"
     inkscape:pageshadow="2"
     inkscape:window-width="1366"
     inkscape:window-height="744"
     id="namedview8"
     showgrid="false"
     inkscape:zoom="11.049369"
     inkscape:cx="11.860358"
     inkscape:cy="13.176351"
     inkscape:window-x="0"
     inkscape:window-y="0"
     inkscape:window-maximized="1"
     inkscape:current-layer="layer1"
     inkscape:document-rotation="0">
    <sodipodi:guide
       position="0,24"
       orientation="0,24"
       id="guide942" />
    <sodipodi:guide
       position="24,24"
       orientation="24,0"
       id="guide944" />
    <sodipodi:guide
       position="24,0"
       orientation="0,-24"
       id="guide946" />
    <sodipodi:guide
       position="0,0"
       orientation="-24,0"
       id="guide948" />
  </sodipodi:namedview>
  <g
     inkscape:groupmode="layer"
     id="layer2"
     inkscape:label="orig"
     style="display:none"
     sodipodi:insensitive="true">
    <path
       d="m 14.438,4.2222221 2.1045,2.2222221 H 21.2 V 19.777778 H 2.8 V 6.4444442 H 7.4575 L 9.562,4.2222221 h 4.876 M 15.45,2 H 8.55 L 6.4455,4.2222221 H 2.8 c -1.265,0 -2.3,0.9999999 -2.3,2.2222221 V 19.777778 C 0.5,21 1.535,22 2.8,22 h 18.4 c 1.265,0 2.3,-1 2.3,-2.222222 V 6.4444442 C 23.5,5.222222 22.465,4.2222221 21.2,4.2222221 H 17.5545 Z M 12,9.7777773 c 1.8975,0 3.45,1.4999997 3.45,3.3333327 0,1.833334 -1.5525,3.333335 -3.45,3.333335 -1.8975,0 -3.45,-1.500001 -3.45,-3.333335 0,-1.833333 1.5525,-3.3333327 3.45,-3.3333327 m 0,-2.2222221 c -3.174,0 -5.75,2.4888888 -5.75,5.5555548 0,3.066668 2.576,5.555557 5.75,5.555557 3.174,0 5.75,-2.488889 5.75,-5.555557 0,-3.066666 -2.576,-5.5555548 -5.75,-5.5555548 z"
       id="path4"
       style="fill:#3366cc;stroke-width:1.13039" />
  </g>
  <g
     inkscape:groupmode="layer"
     id="layer1"
     inkscape:label="black circle border"
     style="display:inline"
     sodipodi:insensitive="true">
    <circle
       style="fill:#000000;stroke:#4089f1;stroke-width:0.105489"
       id="path22"
       cx="12"
       cy="12"
       r="11.447255" />
  </g>
  <g
     inkscape:groupmode="layer"
     id="layer3"
     inkscape:label="blue circle"
     style="display:inline">
    <circle
       style="fill:#4089f1;fill-opacity:1;stroke:#3366cc;stroke-width:0.0671693;stroke-miterlimit:4;stroke-dasharray:none;stroke-dashoffset:0;stroke-opacity:1"
       id="path985"
       cx="-12"
       cy="12"
       transform="scale(-1,1)"
       r="10.966415" />
  </g>
  <g
     inkscape:groupmode="layer"
     id="layer4"
     inkscape:label="white logo"
     style="display:inline">
    <path
       d="m 12.00883,17.877296 6.551081,-4.80755 1.439995,1.057156 L 11.999939,20 3.999974,14.126902 5.448857,13.061353 Z M 12.00003,15.7462 5.457838,10.938648 4.000069,9.8731 12.000034,4 20,9.8731 18.551116,10.938648 Z m 0,-9.6234939 -5.102199,3.7503939 5.1022,3.750396 5.102201,-3.750396 z"
       id="path4-3-7"
       style="display:inline;fill:#ffffff;fill-opacity:1;stroke:url(#linearGradient52);stroke-width:0;stroke-miterlimit:4;stroke-dasharray:none;stroke-dashoffset:0;stroke-opacity:1" />
  </g>
</svg>
