<?xml version="1.0" encoding="UTF-8" standalone="no"?>
<svg
   height="24px"
   viewBox="0 0 24 24"
   width="24px"
   fill="#000000"
   version="1.1"
   id="svg6"
   sodipodi:docname="icon.svg"
   inkscape:version="1.1.2 (0a00cf5339, 2022-02-04)"
   xmlns:inkscape="http://www.inkscape.org/namespaces/inkscape"
   xmlns:sodipodi="http://sodipodi.sourceforge.net/DTD/sodipodi-0.dtd"
   xmlns:xlink="http://www.w3.org/1999/xlink"
   xmlns="http://www.w3.org/2000/svg"
   xmlns:svg="http://www.w3.org/2000/svg"
   xmlns:rdf="http://www.w3.org/1999/02/22-rdf-syntax-ns#"
   xmlns:cc="http://creativecommons.org/ns#"
   xmlns:dc="http://purl.org/dc/elements/1.1/">
  <metadata
     id="metadata12">
    <rdf:RDF>
      <cc:Work
         rdf:about="">
        <dc:format>image/svg+xml</dc:format>
        <dc:type
           rdf:resource="http://purl.org/dc/dcmitype/StillImage" />
      </cc:Work>
    </rdf:RDF>
  </metadata>
  <defs
     id="defs10">
    <linearGradient
       inkscape:collect="always"
       id="linearGradient876">
      <stop
         style="stop-color:#3366cc;stop-opacity:1;"
         offset="0"
         id="stop872" />
      <stop
         style="stop-color:#3366cc;stop-opacity:0;"
         offset="1"
         id="stop874" />
    </linearGradient>
    <linearGradient
       id="linearGradient868"
       inkscape:swatch="solid">
      <stop
         style="stop-color:#ffffff;stop-opacity:1;"
         offset="0"
         id="stop866" />
    </linearGradient>
    <linearGradient
       inkscape:collect="always"
       xlink:href="#linearGradient876"
       id="linearGradient52"
       gradientUnits="userSpaceOnUse"
       x1="4"
       y1="12"
       x2="20"
       y2="12"
       gradientTransform="matrix(0.90625092,0,0,0.99999992,1.125042,1.5867425e-7)" />
  </defs>
  <sodipodi:namedview
     pagecolor="#ffffff"
     bordercolor="#666666"
     borderopacity="1"
     objecttolerance="10"
     gridtolerance="10"
     guidetolerance="10"
     inkscape:pageopacity="0"
     inkscape:pageshadow="2"
     inkscape:window-width="1604"
     inkscape:window-height="768"
     id="namedview8"
     showgrid="true"
     inkscape:zoom="17.99109"
     inkscape:cx="-3.168235"
     inkscape:cy="12.005943"
     inkscape:window-x="-297"
     inkscape:window-y="36"
     inkscape:window-maximized="0"
     inkscape:current-layer="layer4"
     inkscape:document-rotation="0"
     inkscape:pagecheckerboard="0"
     showguides="false">
    <sodipodi:guide
       position="0,24"
       orientation="0,24"
       id="guide942" />
    <sodipodi:guide
       position="24,24"
       orientation="24,0"
       id="guide944" />
    <sodipodi:guide
       position="24,0"
       orientation="0,-24"
       id="guide946" />
    <sodipodi:guide
       position="0,0"
       orientation="-24,0"
       id="guide948" />
    <inkscape:grid
       type="xygrid"
       id="grid3318" />
  </sodipodi:namedview>
  <g
     inkscape:groupmode="layer"
     id="layer2"
     inkscape:label="orig"
     style="display:none"
     sodipodi:insensitive="true">
    <path
       d="m 14.438,4.2222221 2.1045,2.2222221 H 21.2 V 19.777778 H 2.8 V 6.4444442 H 7.4575 L 9.562,4.2222221 h 4.876 M 15.45,2 H 8.55 L 6.4455,4.2222221 H 2.8 c -1.265,0 -2.3,0.9999999 -2.3,2.2222221 V 19.777778 C 0.5,21 1.535,22 2.8,22 h 18.4 c 1.265,0 2.3,-1 2.3,-2.222222 V 6.4444442 C 23.5,5.222222 22.465,4.2222221 21.2,4.2222221 H 17.5545 Z M 12,9.7777773 c 1.8975,0 3.45,1.4999997 3.45,3.3333327 0,1.833334 -1.5525,3.333335 -3.45,3.333335 -1.8975,0 -3.45,-1.500001 -3.45,-3.333335 0,-1.833333 1.5525,-3.3333327 3.45,-3.3333327 m 0,-2.2222221 c -3.174,0 -5.75,2.4888888 -5.75,5.5555548 0,3.066668 2.576,5.555557 5.75,5.555557 3.174,0 5.75,-2.488889 5.75,-5.555557 0,-3.066666 -2.576,-5.5555548 -5.75,-5.5555548 z"
       id="path4"
       style="fill:#3366cc;stroke-width:1.13039" />
  </g>
  <g
     inkscape:groupmode="layer"
     id="layer1"
     inkscape:label="black circle border"
     style="display:inline">
    <ellipse
       style="mix-blend-mode:normal;fill:#5390ff;fill-opacity:1;stroke:#000000;stroke-width:0;stroke-miterlimit:4;stroke-dasharray:none;stroke-opacity:1"
       id="path22"
       cx="11.958218"
       cy="12.000073"
       rx="11.999926"
       ry="12.000072"
       transform="matrix(1,0,0.00348188,0.99999394,0,0)" />
  </g>
  <g
     inkscape:groupmode="layer"
     id="layer4"
     inkscape:label="white logo"
     style="display:inline">
    <path
       d="m 12.008071,17.877297 5.93693,-4.80755 1.304998,1.057157 -7.249978,5.873095 -7.2499757,-5.873095 1.3130519,-1.065551 z m -0.0081,-2.131096 -5.9288654,-4.807551 -1.3211048,-1.0655483 7.2499732,-5.873101 7.249973,5.873101 -1.31305,1.0655483 z m 0,-9.6234937 L 7.3760993,9.8731017 11.999973,13.6235 16.62384,9.8731017 Z"
       id="path4-3-7"
       style="display:inline;fill:#f6f6f6;fill-opacity:1;stroke:url(#linearGradient52);stroke-width:0;stroke-miterlimit:4;stroke-dasharray:none;stroke-dashoffset:0;stroke-opacity:1" />
  </g>
</svg>
